<svg viewBox="0 0 800 500" xmlns="http://www.w3.org/2000/svg">
      <defs>
        <linearGradient id="gradClient" x1="0%" y1="0%" x2="100%" y2="100%">
          <stop offset="0%" stop-color="#f5e0dc" />
          <stop offset="100%" stop-color="#f2cdcd" />
        </linearGradient>
        <linearGradient id="gradWrapper" x1="0%" y1="0%" x2="100%" y2="100%">
          <stop offset="0%" stop-color="#89b4fa" />
          <stop offset="100%" stop-color="#b4befe" />
        </linearGradient>
        <linearGradient id="gradGoogle" x1="0%" y1="0%" x2="100%" y2="100%">
          <stop offset="0%" stop-color="#a6e3a1" />
          <stop offset="100%" stop-color="#94e2d5" />
        </linearGradient>
        <filter id="shadow" x="-5%" y="-5%" width="110%" height="110%">
          <feDropShadow dx="0" dy="4" stdDeviation="4" flood-color="#000" flood-opacity="0.3"/>
        </filter>
      </defs>

      <!-- Client Layer -->
      <rect x="50" y="50" width="200" height="400" rx="10" fill="#313244" filter="url(#shadow)"/>
      <text x="150" y="88" font-family="sans-serif" font-size="18" font-weight="bold" fill="#f5e0dc" text-anchor="middle">AI Clients</text>
      
      <rect x="70" y="126" width="160" height="64" rx="5" fill="url(#gradClient)" filter="url(#shadow)"/>
      <text x="150" y="163" font-family="sans-serif" font-size="14" font-weight="bold" fill="#1e1e2e" text-anchor="middle">OpenAI-compatible</text>
      
      <rect x="70" y="220" width="160" height="64" rx="5" fill="url(#gradClient)" filter="url(#shadow)"/>
      <text x="150" y="257" font-family="sans-serif" font-size="14" font-weight="bold" fill="#1e1e2e" text-anchor="middle">LocalAI-compatible</text>

      <rect x="70" y="314" width="160" height="64" rx="5" fill="url(#gradClient)" filter="url(#shadow)"/>
      <text x="150" y="351" font-family="sans-serif" font-size="14" font-weight="bold" fill="#1e1e2e" text-anchor="middle">Cohere-compatible</text>

      <!-- Wrapper Layer -->
      <rect x="300" y="50" width="200" height="400" rx="10" fill="#313244" filter="url(#shadow)"/>
      <text x="400" y="80" font-family="sans-serif" font-size="16" font-weight="bold" fill="#89b4fa" text-anchor="middle">openai-compatible</text>
      <text x="400" y="99" font-family="sans-serif" font-size="16" font-weight="bold" fill="#89b4fa" text-anchor="middle">bridge</text>

      <rect x="320" y="122" width="160" height="68" rx="5" fill="url(#gradWrapper)" filter="url(#shadow)"/>
      <text x="400" y="150" font-family="sans-serif" font-size="14" font-weight="bold" fill="#1e1e2e" text-anchor="middle">/v1/embeddings</text>
      <text x="400" y="172" font-family="sans-serif" font-size="10" fill="#1e1e2e" text-anchor="middle">Vertex Adapter</text>

      <rect x="320" y="212" width="160" height="76" rx="5" fill="url(#gradWrapper)" filter="url(#shadow)"/>
      <text font-family="sans-serif" font-size="13" font-weight="bold" fill="#1e1e2e" text-anchor="middle">
        <tspan x="400" y="240">/v1/chat</tspan>
        <tspan x="400" dy="16">/completions</tspan>
      </text>
      <text x="400" y="274" font-family="sans-serif" font-size="10" fill="#1e1e2e" text-anchor="middle">Vertex / Ollama Adapter</text>

      <rect x="320" y="314" width="160" height="68" rx="5" fill="url(#gradWrapper)" filter="url(#shadow)"/>
      <text x="400" y="342" font-family="sans-serif" font-size="14" font-weight="bold" fill="#1e1e2e" text-anchor="middle">/v1/rerank</text>
      <text x="400" y="364" font-family="sans-serif" font-size="10" fill="#1e1e2e" text-anchor="middle">Vertex Rerank Adapter</text>

      <!-- Token Provider -->
      <rect x="320" y="396" width="160" height="38" rx="5" fill="#f9e2af" filter="url(#shadow)"/>
      <text x="400" y="420" font-family="sans-serif" font-size="12" font-weight="bold" fill="#1e1e2e" text-anchor="middle">Model Registry + Auth</text>

      <!-- Google Cloud Layer -->
      <rect x="550" y="50" width="200" height="400" rx="10" fill="#313244" filter="url(#shadow)"/>
      <text x="650" y="88" font-family="sans-serif" font-size="18" font-weight="bold" fill="#a6e3a1" text-anchor="middle">Provider APIs</text>

      <rect x="570" y="118" width="160" height="112" rx="5" fill="url(#gradGoogle)" filter="url(#shadow)"/>
      <text x="650" y="152" font-family="sans-serif" font-size="14" font-weight="bold" fill="#1e1e2e" text-anchor="middle">Vertex AI</text>
      <text x="650" y="174" font-family="sans-serif" font-size="10" fill="#1e1e2e" text-anchor="middle">embeddings</text>
      <text x="650" y="190" font-family="sans-serif" font-size="10" fill="#1e1e2e" text-anchor="middle">chat models</text>

      <rect x="570" y="244" width="160" height="70" rx="5" fill="#cba6f7" filter="url(#shadow)"/>
      <text x="650" y="273" font-family="sans-serif" font-size="14" font-weight="bold" fill="#1e1e2e" text-anchor="middle">Ollama</text>
      <text x="650" y="294" font-family="sans-serif" font-size="10" fill="#1e1e2e" text-anchor="middle">local chat models</text>

      <rect x="570" y="330" width="160" height="70" rx="5" fill="url(#gradGoogle)" filter="url(#shadow)"/>
      <text x="650" y="359" font-family="sans-serif" font-size="14" font-weight="bold" fill="#1e1e2e" text-anchor="middle">Vertex AI Search</text>
      <text x="650" y="380" font-family="sans-serif" font-size="10" fill="#1e1e2e" text-anchor="middle">rerank</text>

      <!-- Arrows -->
      <g stroke="#bac2de" stroke-width="2" fill="none">
        <!-- Client to Wrapper -->
        <path d="M 230 158 L 310 158" marker-end="url(#arrow)"/>
        <path d="M 230 252 L 310 252" marker-end="url(#arrow)"/>
        <path d="M 230 346 L 310 346" marker-end="url(#arrow)"/>
        
        <!-- Wrapper to Google Cloud -->
        <path d="M 480 156 L 560 156" marker-end="url(#arrow)"/>
        <path d="M 480 247 C 510 247 528 202 560 202" marker-end="url(#arrow)"/>
        <path d="M 480 253 C 512 253 528 279 560 279" marker-end="url(#arrow)"/>
        <path d="M 480 348 C 515 348 530 365 560 365" marker-end="url(#arrow)"/>
      </g>

      <!-- Arrow Marker -->
      <defs>
        <marker id="arrow" viewBox="0 0 10 10" refX="9" refY="5" markerWidth="6" markerHeight="6" orient="auto-start-reverse">
          <path d="M 0 0 L 10 5 L 0 10 z" fill="#bac2de" />
        </marker>
      </defs>
</svg>
